# xmcd
#
# Track frame offsets:
#	150
#	9550
#	20860
#	31719
#	42360
#	54104
#	63533
#	74413
#	84002
#	96044
#	107541
#	119745
#	130013
#	142975
#	157069
#	167395
#	179071
#	186258
#	195388
#	206527
#	216831
#	227117
#	237295
#
# Disc length: 3275 seconds
#
# Revision: 1
# Processed by: cddbd v1.5.2PL0 Copyright (c) Steve Scherf et al.
# Submitted via: audiograbber 1.83.01
#
DISCID=3b0cc917
DTITLE=Various Artist - Stompin' 31: More R'n'B Blasters
DYEAR=1900
DGENRE=Blues
TTITLE0=Peppermint Harris - Angel Child
TTITLE1=Larry Davis - I Tried
TTITLE2=Otis Rush - Keep On Loving Me, Baby
TTITLE3=Albert Collins - Collins' Shuffle
TTITLE4=Lloyd and Willie - Don't Know Where She Went
TTITLE5=Gus Jenkins - Jealous Of You Baby
TTITLE6=Fenton Robinson and The Castle Rockers - Crazy Crazy Loving
TTITLE7=Magic Sam - Love Me With A Feeling
TTITLE8=James Reed - You Better Hold Me
TTITLE9=Morris Pejoe - She Walked Right In
TTITLE10=David Dean's Combo - Double Freeze
TTITLE11=Morris Pejoe - You Gone Away
TTITLE12=Fenton Robinson and The Castle Rockers - Mississippi Steamboat
TTITLE13=Johnny Fuller - Weeping And Mourning
TTITLE14=Little Johnny Cook - Try Your Love
TTITLE15=Charlie and The Jives - Come On
TTITLE16=Johnny 'Rockhouse' Green - I've got A Big Cadillac
TTITLE17=Dossie Terry - You Will Be Mine
TTITLE18=Fenton Robinson and The Castle Rockers - The Freeze
TTITLE19=Little Marie Allen - Humdinger
TTITLE20=Don and Dewey - Miss Sue
TTITLE21=Pee Wee Kingsley - Flippin' And Floppin'
TTITLE22=Pee Wee Kingsley - Nickle And Dime
EXTD=
EXTT0=
EXTT1=
EXTT2=
EXTT3=
EXTT4=
EXTT5=
EXTT6=
EXTT7=
EXTT8=
EXTT9=
EXTT10=
EXTT11=
EXTT12=
EXTT13=
EXTT14=
EXTT15=
EXTT16=
EXTT17=
EXTT18=
EXTT19=
EXTT20=
EXTT21=
EXTT22=
PLAYORDER=
